<?xml version="1.0" encoding="UTF-8"?>
<!-- Created with Inkscape (http://www.inkscape.org/) -->
<svg id="SVGRoot" width="256px" height="256px" version="1.1" viewBox="0 0 256 256" xmlns="http://www.w3.org/2000/svg">
 <defs>
  <filter id="filter15216" x="-.071189" y="-.010182" width="1.1424" height="1.0204" color-interpolation-filters="sRGB">
   <feGaussianBlur stdDeviation="0.37493414"/>
  </filter>
 </defs>
 <path d="m231.9 250.25c-3.0847-3.1456-5.7982-5.7262-6.03-5.7347-0.23179-8e-3 -10.264-9.8687-22.293-21.912-23.751-23.778-22.257-22.635-25.928-19.84-0.95599 0.72791-1.8909 1.3235-2.0775 1.3235-0.18663 0-0.99822 0.61067-1.8036 1.357-0.80533 0.74636-2.651 1.9042-4.1014 2.573-1.4504 0.66878-2.8913 1.5385-3.2018 1.9326-0.58151 0.73804-8.1659 4.2483-9.179 4.2483-0.31233 0-0.90189 0.33066-1.3101 0.73478-0.72789 0.72056-10.205 3.8825-13.802 4.605-1.0041 0.20166-1.8256 0.55297-1.8256 0.78069 0 0.4191-3.5631 1.19-11.234 2.4306-6.4404 1.0416-26.47 0.80903-33.984-0.39455-3.3984-0.54436-7.0004-1.1133-8.0045-1.2643-1.0041-0.15101-1.8256-0.47959-1.8256-0.73018 0-0.2506-0.82151-0.61993-1.8256-0.82072-2.8713-0.57422-13.027-3.8577-13.36-4.3196-0.1653-0.22905-1.3028-0.81827-2.5277-1.3094-4.0821-1.6366-7.5635-3.3438-7.5635-3.7088 0-0.19854-0.82151-0.68996-1.8256-1.092-1.0041-0.40209-2.8822-1.4438-4.1737-2.315s-2.6185-1.584-2.949-1.584c-0.33052 0-0.60094-0.22642-0.60094-0.50315 0-0.27675-1.3271-1.3431-2.949-2.3697-1.622-1.0266-3.581-2.4384-4.3533-3.1373-1.9628-1.7761-7.6055-7.0374-8.514-7.9384-5.4866-5.4416-6.6524-6.7117-6.6524-7.2479 0-0.34596-0.6482-1.1389-1.4405-1.7621-1.4236-1.1198-5.8619-7.5226-5.8619-8.4565 0-0.26547-0.33346-0.61065-0.74103-0.76704-0.40757-0.15638-1.5968-1.9528-2.6427-3.9921-1.0459-2.0393-2.0509-3.7078-2.2334-3.7078-0.1824 0-1.323-2.3382-2.5347-5.1959-1.2117-2.8577-2.3567-5.3223-2.5445-5.4768-0.41639-0.34253-3.6732-10.75-4.2186-13.481-0.21593-1.0813-0.58576-2.0924-0.82183-2.2469-1.4228-0.93103-3.4489-22.855-2.9848-32.299 0.39765-8.0929 2.1615-20.372 3.0259-21.064 0.19281-0.15447 1.2831-3.5567 2.4229-7.5605 1.1398-4.0038 2.2603-7.4163 2.49-7.5832 0.22971-0.16694 1.4145-2.5785 2.6329-5.359 1.2184-2.7805 2.5493-5.3994 2.9577-5.8198 0.40837-0.42037 1.3956-2.0634 2.1938-3.6512 0.79822-1.5878 1.8031-3.266 2.233-3.7294 0.42993-0.46342 1.8494-2.4856 3.1545-4.4937 1.305-2.0081 3.0708-4.2424 3.9239-4.965s1.5511-1.555 1.5511-1.8499c0-0.6192 11.613-12.284 12.229-12.284 0.22559 0 1.4541-0.9479 2.7301-2.1064 2.7269-2.476 7.3208-5.7576 8.0599-5.7576 0.28456 0 0.71952-0.3608 0.96658-0.80177 0.24706-0.44097 2.0072-1.5746 3.9113-2.5192 1.9042-0.94461 3.8-2.0442 4.2129-2.4436 0.81557-0.78881 6.1411-3.2079 9.7382-4.4236 1.2358-0.41763 2.4023-0.97312 2.5923-1.2344 0.40864-0.56206 13.053-4.3055 14.543-4.3055 0.56491 0 1.1114-0.25152 1.2144-0.55894 0.38483-1.1488 13.45-2.4538 24.341-2.4314 10.895 0.022486 23.402 1.2949 23.776 2.419 0.10472 0.3142 0.66257 0.57128 1.2396 0.57128 2.1298 0 15.147 3.7642 15.147 4.3801 0 0.22027 0.82152 0.69312 1.8256 1.0508 1.0041 0.35766 3.0023 1.0735 4.4405 1.5908 1.4382 0.51727 3.0812 1.3608 3.6512 1.8745 0.56996 0.51368 2.6793 1.7349 4.6874 2.7137 2.0082 0.97887 4.4095 2.432 5.3363 3.2292 0.92684 0.79718 1.9517 1.4497 2.2775 1.4501 0.32582 3.77e-4 1.5583 0.88539 2.7388 1.9667 1.1805 1.0813 2.2678 1.966 2.4162 1.966 0.39242 0 4.5712 3.28 7.1242 5.5919 3.6618 3.316 4.9806 4.6713 7.912 8.1302 1.5447 1.8227 3.5037 4.0503 4.3533 4.9501 0.8496 0.89983 1.5447 1.7599 1.5447 1.9112 0 0.15132 0.63193 1.1036 1.4043 2.1163 0.77236 1.0126 1.4043 2.0769 1.4043 2.3651 0 0.28817 0.74877 1.3437 1.6639 2.3457 0.91517 1.002 2.1392 2.8962 2.7201 4.2095 0.5809 1.3132 1.4128 2.7616 1.8487 3.2185 0.70657 0.74062 1.4549 2.3101 4.2217 8.8543 0.42893 1.0146 0.77989 2.2152 0.77989 2.6682 0 0.45294 0.23748 0.82352 0.52774 0.82352 0.54747 0 2.8608 7.0546 4.0624 12.388 0.37903 1.6825 0.87417 3.1896 1.1003 3.3492 0.22614 0.15957 0.85722 3.1929 1.4024 6.7406 1.4189 9.2335 1.4194 27.687 1e-3 36.783-0.57812 3.7073-1.2332 6.867-1.4558 7.0215-0.22254 0.15447-0.96402 2.4294-1.6477 5.0555-1.4328 5.5032-2.9857 10.266-3.4799 10.673-0.18775 0.15446-1.3076 2.5558-2.4885 5.3363-1.181 2.7805-2.3364 5.1844-2.5677 5.342-0.23132 0.15758-1.0993 1.6377-1.9288 3.2893-0.8295 1.6515-1.9238 3.4347-2.4318 3.9626-1.3605 1.4138-3.1288 5.0421-2.6927 5.5249 0.20762 0.22985 12.888 12.947 28.179 28.259l27.802 27.842-10.971 10.917c-6.0342 6.0043-11.095 11.026-11.246 11.16-0.1512 0.13342-2.7987-2.3311-5.8834-5.4768zm-106.9-52.925c6.2804-0.83375 12.539-2.253 12.539-2.8434 0-0.27793 0.33548-0.50533 0.74551-0.50533 1.366 0 11.323-3.4615 11.893-4.1347 0.30893-0.36464 2.5839-1.6689 5.0555-2.8983 2.4715-1.2294 4.7465-2.5161 5.0554-2.8593 0.30894-0.34319 1.8254-1.473 3.3699-2.5106 1.5445-1.0377 3.3996-2.5895 4.1224-3.4485 0.72279-0.859 1.6219-1.5618 1.998-1.5618 0.6875 0 6.0357-5.6682 8.5006-9.0092 0.72729-0.98579 1.8427-2.1568 2.4788-2.6023 0.63601-0.44548 1.1564-1.0538 1.1564-1.3519 0-0.60812 2.6878-4.8716 3.8279-6.072 0.40722-0.42876 1.524-2.4509 2.4818-4.4938 0.95775-2.0428 1.894-3.8406 2.0806-3.995 0.83839-0.6942 3.4531-7.8848 4.2383-11.656 0.20908-1.0041 0.58657-1.8256 0.83887-1.8256 0.67276 0 2.3245-9.4867 2.8362-16.29 0.244-3.2439 0.21601-8.9278-0.0622-12.631-0.52336-6.9662-2.0674-16.648-2.7334-17.14-0.20904-0.15447-1.1904-2.8588-2.1807-6.0095-0.99033-3.1508-2.1233-6.0577-2.5178-6.4598-0.39444-0.40209-1.4637-2.4673-2.3761-4.5893-0.91242-2.122-2.2233-4.397-2.9131-5.0555-0.68978-0.65849-1.2585-1.378-1.2639-1.599-0.021-0.86617-3.2521-5.45-5.4961-7.7969-1.301-1.3607-2.3683-2.7774-2.3716-3.1482-3e-3 -0.37083-0.35474-0.87638-0.7809-1.1234-0.76544-0.44374-7.2942-6.1249-9.5674-8.3253-1.3388-1.2959-5.1873-3.821-6.6498-4.363-0.54064-0.20038-0.98299-0.6012-0.98299-0.89071 0-0.55525-7.8315-4.5643-8.9161-4.5643-0.34822 0-0.63311-0.22887-0.63311-0.5086 0-0.57991-8.3368-3.7068-11.43-4.2871-1.1281-0.21164-2.0511-0.5819-2.0511-0.82282 0-0.87118-10.014-2.3141-18.256-2.6305-4.8872-0.18758-10.903-0.05578-14.324 0.31383-6.1797 0.66766-11.881 1.7313-12.358 2.3057-0.15447 0.18591-2.4294 1.008-5.0555 1.8268-5.8452 1.8227-8.6176 2.8464-8.9875 3.3187-0.15447 0.19728-2.0053 1.1721-4.113 2.1663s-3.9674 2.1598-4.1326 2.5903c-0.16521 0.43052-0.53608 0.78276-0.82415 0.78276-0.6734 0-5.8372 3.4409-8.1978 5.4625-4.0704 3.486-14.75 14.351-14.75 15.006 0 0.44721-2.8859 4.8771-3.8152 5.8564-0.40024 0.42177-1.5065 2.3176-2.4585 4.2129-0.95191 1.8953-1.952 3.5303-2.2223 3.6333-0.27035 0.10298-0.49155 0.5554-0.49155 1.0054 0 0.44998-0.46127 1.756-1.025 2.9022-0.56377 1.1462-1.4995 3.7271-2.0794 5.7352-0.57991 2.0081-1.2422 3.7838-1.4717 3.946-1.1919 0.84214-3.2926 15.762-3.2782 23.283 0.01613 8.4031 2.0974 24.128 3.3104 25.011 0.21213 0.15447 0.7127 1.4183 1.1124 2.8086 0.96438 3.3545 3.498 9.7577 4.0007 10.111 0.21983 0.15446 1.3736 2.2855 2.5639 4.7356 1.1903 2.4502 2.7672 5.1043 3.5041 5.898 0.73698 0.79377 1.7321 2.2015 2.2114 3.1284 0.47931 0.92684 1.4696 2.3171 2.2007 3.0894 0.7311 0.77236 3.3002 3.4897 5.7091 6.0385 2.4089 2.5488 4.6609 4.6342 5.0043 4.6342s1.1441 0.66063 1.7792 1.468c0.63512 0.80743 2.3597 2.2194 3.8324 3.1376 1.4727 0.91824 2.9336 1.9638 3.2465 2.3235 0.7596 0.87319 3.3799 2.4275 6.3474 3.7652 1.3324 0.60062 2.744 1.4102 3.1368 1.799 0.3928 0.38884 3.347 1.5917 6.5649 2.673 3.2179 1.0813 5.9802 2.1365 6.1385 2.3448 0.29376 0.3867 11.04 2.511 14.598 2.8856 4.4486 0.46843 18.192 0.34727 22.288-0.19648z" fill="#062463" stroke="#fff" stroke-width="4"/>
 <path d="m105.49 169.64c-8.3372-6.5218-25.792-10.215-53.105-11.236l-12.385-0.46312v-92.764h10.858v-6.3046l11.707 0.38539c22.33 0.7351 39.908 5.4017 47.924 12.722l2.2237 2.031 2.836-2.2631c3.735-2.9805 6.8199-4.7025 11.685-6.5228 9.7362-3.6428 25.864-6.1563 39.501-6.1563h7.639v6.1079h10.858v92.976h-5.2712c-2.8991 0-10.152 0.32427-16.118 0.72062-22.065 1.4659-37.893 5.5394-44.681 11.499-2.0315 1.7836-2.8004 2.0251-6.2964 1.9769-3.56-0.0491-4.3422-0.33642-7.3756-2.7093zm2.3269-93.994c-6.0831-6.2762-22.615-10.793-42.537-11.623l-9.6708-0.40276v79.39l10.01 0.46053c16.71 0.76881 31.058 3.95 39.901 8.8468l4.0416 2.238 0.17534-38.374 0.17533-38.374zm22.783 72.349c7.5296-2.2997 19.546-4.1292 30.03-4.572l9.6708-0.40848v-79.401l-10.01 0.4089c-11.281 0.46082-20.345 1.8554-28.334 4.3598-6.8499 2.1472-9.8842 3.6899-13.264 6.7436l-2.684 2.4249v77.152l4.9202-2.6285c2.7061-1.4457 7.058-3.2814 9.6708-4.0794z" fill="#062463"/>
 <path d="m116.25 115.92v-38.232l2.4833-2.2426c2.984-2.6948 6.6406-4.656 11.943-6.4055 9.4849-3.1298 19.539-4.5468 36.251-5.1097l3.0351-0.10221v78.822l-1.3796 0.22803c-0.75878 0.12542-2.6295 0.22986-4.1572 0.23208-3.7118 5e-3 -11.694 0.63072-16.905 1.3243-11.594 1.5432-18.869 3.5775-26.404 7.3828-2.5416 1.2836-4.6763 2.3337-4.7438 2.3337-0.0675 0-0.1228-17.204-0.1228-38.232z" fill="none"/>
 <g fill="#fff">
  <path d="m104.65 151.73c-9.4986-4.7852-21.296-7.3856-37.505-8.2674-4.0468-0.22013-8.227-0.48393-9.2893-0.58622l-1.9314-0.18599-8.29e-4 -39.43-8.28e-4 -39.43 2.668 0.08964c24.935 0.83781 41.128 4.6833 48.617 11.546l2.4289 2.2257-0.0475 30.043c-0.0261 16.523-0.15027 33.685-0.27592 38.136l-0.22844 8.0936z"/>
  <path d="m105.4 152.08c-9.0814-4.8218-21.973-7.7109-38.445-8.6156-3.9456-0.21672-8.043-0.47934-9.1053-0.5836l-1.9314-0.18956-8.29e-4 -39.43-8.28e-4 -39.43 2.668 0.08964c24.935 0.83781 41.128 4.6833 48.617 11.546l2.4289 2.2257-0.0466 30.227c-0.0256 16.625-0.1498 33.801-0.27592 38.17l-0.2293 7.9439z"/>
  <path d="m116.25 115.92v-38.232l2.4833-2.2426c2.984-2.6948 6.6406-4.656 11.943-6.4055 9.4849-3.1298 19.539-4.5468 36.251-5.1097l3.0351-0.10221v78.822l-1.3796 0.22803c-0.75878 0.12542-2.6295 0.22986-4.1572 0.23208-3.7118 5e-3 -11.694 0.63072-16.905 1.3243-11.594 1.5432-18.869 3.5775-26.404 7.3828-2.5416 1.2836-4.6763 2.3337-4.7438 2.3337-0.0675 0-0.1228-17.204-0.1228-38.232z"/>
  <path d="m111.44 72.619c-2.4471-2.6328-8.0583-5.8331-13.768-7.8526-9.8851-3.4963-21.755-5.274-38.537-5.7718l-8.3696-0.24825v6.3707h-8.4904l1.2101-2.2507c0.88455-1.6452 3.041-4.1033 8.0161-9.1374 6.5519-6.6296 10.247-9.7523 14.164-11.971 1.0117-0.57308 2.2627-1.4291 2.7801-1.9022 1.9978-1.8271 9.4439-5.3816 16.166-7.7173 7.8189-2.7166 9.8033-3.2222 15.66-3.9899 10.564-1.3848 31.375-0.17558 34.944 2.0305 0.64448 0.39831 1.4325 0.7242 1.7512 0.7242 1.6267 0 11.658 3.8419 11.658 4.4649 0 0.17471 0.22161 0.31765 0.49248 0.31765 0.80614 0 7.7569 3.5202 8.8125 4.463 0.53658 0.47928 1.9993 1.4509 3.2504 2.159 1.2511 0.70819 3.683 2.5293 5.4042 4.0468 1.7212 1.5176 4.5279 3.9485 6.2372 5.402s3.3409 3.0923 3.6259 3.6415c0.28497 0.54927 1.0548 1.5949 1.7108 2.3237 1.5813 1.7567 4.4573 5.5306 5.005 6.5675l0.43724 0.82776h-9.2232v-6.2542l-5.7943 8.83e-4c-17.631 0.0027-35.862 3.2196-45.978 8.1131-1.6646 0.8052-4.5513 2.62-6.4148 4.0329-1.8635 1.4129-3.494 2.5689-3.6233 2.5689s-0.63646-0.4318-1.127-0.95956z"/>
  <path d="m101.17 197.17c-7.2787-1.2399-11.809-2.3924-17.291-4.3983-3.3386-1.2217-6.6497-2.5286-7.3578-2.9042-0.70819-0.37561-2.9431-1.5469-4.9665-2.6029-2.0234-1.056-4.2335-2.358-4.9114-2.8934-0.67786-0.53537-2.2045-1.6475-3.3925-2.4715-5.1788-3.5918-16.046-14.359-19.002-18.827-1.1039-1.6686-2.157-3.1264-2.3402-3.2396-0.18316-0.11319-0.5158-0.54736-0.73921-0.9648-0.40533-0.75736-0.39252-0.75846 5.9763-0.51329 19.727 0.75942 32.082 2.0904 41.7 4.4926 7.5168 1.8773 11.63 3.6192 16.403 6.9474 3.2133 2.2404 4.7053 2.7447 8.1299 2.7475 3.0513 3e-3 3.6187-0.21222 6.678-2.5278 7.0054-5.3024 19.587-8.7476 38.321-10.494 7.0236-0.65466 25.846-1.5374 26.156-1.2267 0.12032 0.12033-0.27056 0.934-0.86863 1.8082s-1.3814 2.1688-1.7408 2.877-0.87407 1.4171-1.1438 1.5753c-0.26969 0.15822-2.0479 2.1448-3.9515 4.4147-1.9036 2.2699-4.31 4.872-5.3475 5.7826-4.8302 4.2391-5.9497 5.1658-8.8734 7.3448-1.7199 1.2818-4.2032 2.9074-5.5184 3.6124-1.3152 0.70498-3.964 2.1582-5.8863 3.2294-2.9481 1.6428-10.512 4.5759-11.801 4.5759-0.21185 0-1.2441 0.40576-2.2938 0.9017s-4.2264 1.3478-7.0592 1.8931c-4.7512 0.91451-5.9919 0.99965-16.003 1.0982-5.969 0.0588-11.763-0.0482-12.876-0.23781z"/>
  <path d="m38.066 153.17c-0.80315-1.5495-1.9858-3.8258-2.6281-5.0585s-1.7853-4.0624-2.54-6.2881-1.6721-4.6501-2.0388-5.3875c-0.7254-1.4588-1.8763-7.7088-2.5984-14.111-1.2005-10.643 0.17363-28.333 2.6291-33.846 0.36051-0.80936 0.94333-2.3821 1.2952-3.495 0.89562-2.8329 3.0539-8.4306 3.759-9.7491 0.32459-0.60702 1.3086-2.3453 2.1868-3.8629l1.5966-2.7592 0.0027 43.687c0.0015 24.028-0.04374 43.687-0.10054 43.687-0.0568 0-0.76039-1.2678-1.5635-2.8172z"/>
  <path d="m185.43 112.75c0.0105-40.342 0.0685-44.798 0.5742-44.137 1.2619 1.6507 6.1214 12.086 7.709 16.555 2.0324 5.7209 2.7881 8.9704 3.6789 15.819 0.80311 6.175 0.91162 17.396 0.22059 22.809-0.67817 5.3128-1.8657 10.948-2.4421 11.588-0.27368 0.30391-0.60782 1.0492-0.74251 1.6562-0.78927 3.557-3.2109 9.8471-5.4528 14.164-1.4187 2.7316-2.7994 5.2931-3.0682 5.6922-0.40762 0.60526-0.48677-6.7199-0.47702-44.147z" filter="url(#filter15216)"/>
 </g>
</svg>
